<svg id="visual" viewBox="0 0 960 540" width="960" height="540" xmlns="http://www.w3.org/2000/svg" xmlns:xlink="http://www.w3.org/1999/xlink" version="1.1"><rect x="0" y="0" width="960" height="540" fill="#FFFFFF"></rect><path d="M0 79L16 82C32 85 64 91 96 112.3C128 133.7 160 170.3 192 189C224 207.7 256 208.3 288 181.5C320 154.7 352 100.3 384 87.5C416 74.7 448 103.3 480 128.5C512 153.7 544 175.3 576 163C608 150.7 640 104.3 672 86.3C704 68.3 736 78.7 768 89.7C800 100.7 832 112.3 864 134.2C896 156 928 188 944 204L960 220L960 0L944 0C928 0 896 0 864 0C832 0 800 0 768 0C736 0 704 0 672 0C640 0 608 0 576 0C544 0 512 0 480 0C448 0 416 0 384 0C352 0 320 0 288 0C256 0 224 0 192 0C160 0 128 0 96 0C64 0 32 0 16 0L0 0Z" fill="#0a2540" stroke-linecap="round" stroke-linejoin="miter"></path></svg>